<svg width="24" height="24" viewBox="0 0 24 24" fill="none" xmlns="http://www.w3.org/2000/svg">
<path fill-rule="evenodd" clip-rule="evenodd" d="M21.8602 19.125L13.1898 3.675C12.9522 3.2625 12.4771 3 12.002 3C11.4873 3 11.0518 3.3 10.7747 3.7125L2.14386 19.1625C1.9459 19.5375 1.9459 20.0625 2.18345 20.4375C2.42099 20.8125 2.8169 21 3.33159 21H20.6329C21.1476 21 21.5831 20.775 21.781 20.3625C22.0581 20.025 22.0581 19.5375 21.8602 19.125ZM11 8H13V14.5H11V8ZM12 16C11.1716 16 10.5 16.6716 10.5 17.5C10.5 18.3284 11.1716 19 12 19C12.8284 19 13.5 18.3284 13.5 17.5C13.5 16.6716 12.8284 16 12 16Z" fill="currentColor"/>
</svg>
