<svg width="24" height="24" viewBox="0 0 24 24" fill="none" xmlns="http://www.w3.org/2000/svg">
<path fill-rule="evenodd" clip-rule="evenodd" d="M6.34315 17.6569C9.46734 20.7811 14.5327 20.7811 17.6569 17.6569C20.781 14.5327 20.781 9.46734 17.6569 6.34315C14.5327 3.21895 9.46734 3.21895 6.34315 6.34315C3.21895 9.46734 3.21895 14.5327 6.34315 17.6569ZM7.75736 16.2426C10.1005 18.5858 13.8995 18.5858 16.2426 16.2426C18.5858 13.8995 18.5858 10.1005 16.2426 7.75736C13.8995 5.41422 10.1005 5.41422 7.75736 7.75736C5.41421 10.1005 5.41421 13.8995 7.75736 16.2426Z" fill="currentColor"/>
<path d="M16.2426 6.34315L17.6569 7.75736L7.75736 17.6569L6.34315 16.2426L16.2426 6.34315Z" fill="currentColor"/>
<path d="M18.0104 9.52513L19.4246 10.9393L10.9393 19.4246L9.52513 18.0104L18.0104 9.52513Z" fill="currentColor"/>
<path d="M13.0607 4.57538L14.4749 5.9896L5.98959 14.4749L4.57538 13.0607L13.0607 4.57538Z" fill="currentColor"/>
</svg>
